<mxfile host="app.diagrams.net" modified="2024-01-28T09:36:06.301Z" agent="Mozilla/5.0 (Windows NT 10.0; Win64; x64) AppleWebKit/537.36 (KHTML, like Gecko) Chrome/121.0.0.0 Safari/537.36 Edg/121.0.0.0" etag="9icllF4PIu9bbsDNXi97" version="23.0.2" type="github">
  <diagram name="第 1 页" id="HPixPuR0UMIwDP6p2zAp">
    <mxGraphModel dx="1621" dy="1614" grid="0" gridSize="10" guides="1" tooltips="1" connect="1" arrows="1" fold="1" page="0" pageScale="1" pageWidth="827" pageHeight="1169" math="0" shadow="0">
      <root>
        <mxCell id="0" />
        <mxCell id="1" parent="0" />
        <mxCell id="cz8bFZbingRRNUFP_RI7-1" value="" style="rounded=1;whiteSpace=wrap;html=1;" vertex="1" parent="1">
          <mxGeometry x="-76" y="-541" width="120" height="60" as="geometry" />
        </mxCell>
      </root>
    </mxGraphModel>
  </diagram>
</mxfile>
